HIERARCHY
ROOT SpineBase
{
  OFFSET 0.000000 0.000000 0.000000
  CHANNELS 6 Xposition Yposition Zposition Zrotation Xrotation Yrotation
  JOINT SpineMid
  {
    OFFSET 0.000000 31.596751 0.000000
    CHANNELS 3 Zrotation Xrotation Yrotation
    JOINT SpineShoulder
    {
      OFFSET 0.072309 23.032987 -0.541073
      CHANNELS 3 Zrotation Xrotation Yrotation
      JOINT Neck
      {
        OFFSET 0.001759 7.591501 -0.424811
        CHANNELS 3 Zrotation Xrotation Yrotation
        JOINT Head
        {
          OFFSET 4.686029 13.185281 0.755243
          CHANNELS 3 Zrotation Xrotation Yrotation
          End Site
          {
            OFFSET 0 0 0
          }
        }
      }
      JOINT ShoulderLeft
      {
        OFFSET -11.484029 -1.877769 -11.903472
        CHANNELS 3 Zrotation Xrotation Yrotation
        JOINT ElbowLeft
        {
          OFFSET -2.206220 -24.969803 -7.077538
          CHANNELS 3 Zrotation Xrotation Yrotation
          JOINT WristLeft
          {
            OFFSET 2.590475 -21.427626 -6.231074
            CHANNELS 3 Zrotation Xrotation Yrotation
            JOINT HandLeft
            {
              OFFSET 0.682283 -6.420858 -0.500606
              CHANNELS 3 Zrotation Xrotation Yrotation
              JOINT HandTipLeft
              {
                OFFSET 2.189139 -6.498927 -1.588555
                CHANNELS 3 Zrotation Xrotation Yrotation
                End Site
                {
                  OFFSET 0 0 0
                }
              }
              JOINT ThumbLeft
              {
                OFFSET 2.996974 2.334325 0.105898
                CHANNELS 3 Zrotation Xrotation Yrotation
                End Site
                {
                  OFFSET 0 0 0
                }
              }
            }
          }
        }
      }
      JOINT ShoulderRight
      {
        OFFSET 13.722597 -5.314522 10.144101
        CHANNELS 3 Zrotation Xrotation Yrotation
        JOINT ElbowRight
        {
          OFFSET 2.002632 -25.354749 1.898933
          CHANNELS 3 Zrotation Xrotation Yrotation
          JOINT WristRight
          {
            OFFSET -0.421948 -25.411427 -8.513304
            CHANNELS 3 Zrotation Xrotation Yrotation
            JOINT HandRight
            {
              OFFSET -0.397541 -3.244034 -1.001961
              CHANNELS 3 Zrotation Xrotation Yrotation
              JOINT HandTipRight
              {
                OFFSET -1.434245 -5.936015 -4.152205
                CHANNELS 3 Zrotation Xrotation Yrotation
                End Site
                {
                  OFFSET 0 0 0
                }
              }
              JOINT ThumbRight
              {
                OFFSET -1.214743 0.846445 -5.851276
                CHANNELS 3 Zrotation Xrotation Yrotation
                End Site
                {
                  OFFSET 0 0 0
                }
              }
            }
          }
        }
      }
    }
  }
  JOINT HipLeft
  {
    OFFSET -4.880325 2.014438 -6.549813
    CHANNELS 3 Zrotation Xrotation Yrotation
    JOINT KneeLeft
    {
      OFFSET -19.185768 -25.007240 -18.850579
      CHANNELS 3 Zrotation Xrotation Yrotation
      JOINT AnkleLeft
      {
        OFFSET 1.855288 -26.872821 -10.311921
        CHANNELS 3 Zrotation Xrotation Yrotation
        JOINT FootLeft
        {
          OFFSET 7.657328 7.270211 -5.066551
          CHANNELS 3 Zrotation Xrotation Yrotation
          End Site
          {
            OFFSET 0 0 0
          }
        }
      }
    }
  }
  JOINT HipRight
  {
    OFFSET 5.640781 -0.217653 0.551010
    CHANNELS 3 Zrotation Xrotation Yrotation
    JOINT KneeRight
    {
      OFFSET -8.489819 -17.950680 -30.854301
      CHANNELS 3 Zrotation Xrotation Yrotation
      JOINT AnkleRight
      {
        OFFSET -4.649756 -26.606638 -9.637407
        CHANNELS 3 Zrotation Xrotation Yrotation
        JOINT FootRight
        {
          OFFSET 3.823293 -3.324678 8.437304
          CHANNELS 3 Zrotation Xrotation Yrotation
          End Site
          {
            OFFSET 0 0 0
          }
        }
      }
    }
  }
}
MOTION
Frames: 5
Frame Time: 0.033333
-51.618464 45.489410 337.361550 -0.394408 -2.963023 -9.192087 -0.179682 -0.035754 9.182308 -0.581214 0.093130 -0.043855 31.107798 2.615988 -3.415175 0.000000 0.000000 0.000000 -1.083099 0.663174 0.938230 36.706812 45.918118 -18.008596 11.304477 18.147452 4.841566 3.313170 -25.153351 9.425313 0.000000 0.000000 0.000000 0.000000 0.000000 0.000000 -7.923104 39.382912 5.985023 -22.471206 -21.370287 -6.028762 8.803852 15.892550 -2.745494 15.112036 -23.100699 2.269550 0.000000 0.000000 0.000000 0.000000 0.000000 0.000000 33.476244 67.793576 -70.171550 120.168826 -44.759050 135.079166 19.822055 -10.988154 45.523978 0.000000 0.000000 0.000000 -4.020324 41.757224 -4.562736 10.729725 -40.095661 19.743564 -102.036705 21.665956 145.300988 0.000000 0.000000 0.000000
-52.083393 46.577072 339.676898 -1.533908 -4.747283 -8.414241 -0.737886 1.182899 8.360302 -0.131824 -0.060498 -0.082316 28.143787 1.865678 -2.288399 0.000000 0.000000 0.000000 -0.963369 1.664003 1.267876 32.520243 44.388485 -14.585556 11.268086 18.215614 4.422331 3.575451 -23.577230 8.933581 0.000000 0.000000 0.000000 0.000000 0.000000 0.000000 -1.738048 41.832147 4.655818 -27.895994 -20.360867 -8.251824 12.294466 25.282487 -3.439704 14.575824 -36.395447 5.504181 0.000000 0.000000 0.000000 0.000000 0.000000 0.000000 36.976154 67.728467 -72.412484 117.319060 -46.564767 133.238142 16.405269 -12.492410 44.377325 0.000000 0.000000 0.000000 -3.565233 41.965910 -3.543869 8.773969 -38.287936 17.116309 -94.965378 23.877467 144.531311 0.000000 0.000000 0.000000
-52.170560 47.893808 340.759919 -2.221918 -4.214703 -5.707716 -1.035581 0.721998 5.619685 -0.236142 -0.294899 -0.127798 26.431052 -0.085849 -0.693092 0.000000 0.000000 0.000000 -0.469190 2.700570 1.481206 29.329242 42.716890 -11.839991 10.950430 15.485910 4.550242 2.579020 -20.123220 7.470597 0.000000 0.000000 0.000000 0.000000 0.000000 0.000000 2.672165 43.808434 3.750985 -30.467835 -19.661942 -9.739276 17.061081 20.643397 -5.167038 8.779607 -37.354763 5.435618 0.000000 0.000000 0.000000 0.000000 0.000000 0.000000 41.079848 68.826500 -77.249193 119.223388 -44.035488 130.704945 13.148326 -11.721191 44.542124 0.000000 0.000000 0.000000 -1.345516 39.892216 -5.395193 9.008348 -37.381408 15.731551 -91.498206 24.989942 145.354823 0.000000 0.000000 0.000000
-51.871633 48.951917 340.881159 -2.363239 -2.401565 -1.810981 -1.546333 0.144091 1.714906 -0.405068 -0.270160 -0.157967 26.027329 -3.784965 1.483705 0.000000 0.000000 0.000000 -0.771607 1.886607 1.827309 28.496643 41.602228 -10.635836 10.686723 15.127690 4.357304 2.348074 -19.276583 7.126589 0.000000 0.000000 0.000000 0.000000 0.000000 0.000000 10.132584 43.020913 1.551122 -36.797240 -13.174142 -10.487242 19.425315 13.699223 -5.153377 2.687153 -34.626415 4.697381 0.000000 0.000000 0.000000 0.000000 0.000000 0.000000 44.609753 65.839844 -81.111604 116.434057 -44.791325 127.492447 13.299226 -11.177873 43.978610 0.000000 0.000000 0.000000 0.782168 36.998696 -8.416117 13.742125 -38.919330 16.440092 -91.950922 25.546733 149.200260 0.000000 0.000000 0.000000
-51.387850 50.160953 341.006404 -2.492731 -0.576643 -1.232464 -1.970269 -0.125443 1.123032 -0.523732 -0.476394 -0.193823 26.778799 -9.163777 4.536490 0.000000 0.000000 0.000000 -1.472291 0.936217 2.187158 29.576845 40.210496 -10.513258 9.379370 16.837641 3.805721 0.347257 -20.413981 6.453169 0.000000 0.000000 0.000000 0.000000 0.000000 0.000000 14.441594 41.546193 0.602207 -39.718621 -7.387694 -10.064368 18.279303 5.566683 -4.520164 -0.759402 -31.071724 4.633598 0.000000 0.000000 0.000000 0.000000 0.000000 0.000000 41.114580 60.083738 -75.452952 117.390690 -50.662413 134.603595 11.432058 -14.162697 38.149604 0.000000 0.000000 0.000000 -0.184523 33.595600 -6.626801 16.818624 -39.839285 15.889462 -90.712183 26.966408 152.173996 0.000000 0.000000 0.000000
